<svg width="57" height="66" viewBox="0 0 57 66" fill="none" xmlns="http://www.w3.org/2000/svg">
<g filter="url(#filter0_d_2044_2)">
<path d="M8 8C8 5.79086 9.79086 4 12 4H36.7209C37.7665 4 38.7705 4.40943 39.518 5.1406L47.7971 13.2394C48.5664 13.9919 49 15.0227 49 16.0988V50C49 52.2091 47.2091 54 45 54H12C9.79086 54 8 52.2091 8 50V8Z" fill="white"/>
</g>
<path d="M26.0059 15.2128C26.1143 13.265 28.5343 13.0279 29.1663 15.2128C29.672 16.9608 28.8588 19.769 28.3411 21.7743C28.8589 22.9533 30.55 25.1383 31.558 26.1037C34.9234 25.5956 36.8196 25.6522 38.0667 26.2392C39.758 27.0353 39.3992 28.9939 37.7592 29.1525C36.3584 29.288 34.2913 29.1524 31.353 26.7304C30.5899 26.832 28.3155 27.269 25.5959 28.204C24.5538 29.8638 23.1017 32.1341 21.8717 33.1159C19.8559 34.725 18.3355 34.1999 17.9084 33.3192C17.3276 31.7609 19.6851 30.3042 23.973 28.204C24.6506 26.8715 26.2143 23.5393 27.048 20.87C26.6835 20.0061 25.8692 17.6688 26.0059 15.2128ZM23.3921 29.1186C17.5496 31.6183 17.823 33.3022 18.9163 33.4716C20.0097 33.641 21.3592 32.269 23.3921 29.1186ZM37.6909 27.6281C37.6226 26.036 35.1626 26.0359 31.9509 26.5779C35.6921 29.2202 37.6909 28.746 37.6909 27.6281ZM28.0559 22.4113C27.1539 25.0535 26.2792 26.9111 25.9546 27.5096C28.3873 26.7643 30.3166 26.3634 30.9771 26.2561C29.6241 24.7385 28.4659 23.0605 28.0559 22.4113ZM27.3555 20.0231C28.7734 15.5346 28.2951 14.1119 27.2188 14.2643C26.0913 14.4506 26.2451 17.6349 27.3555 20.0231Z" fill="#FF2116"/>
<path d="M34.616 39.1689V46.6829H33.1846V39.1689H34.616ZM37.6713 42.415V43.5349H34.2412V42.415H37.6713ZM38.0721 39.1689V40.2888H34.2412V39.1689H38.0721Z" fill="black"/>
<path d="M28.5054 46.6829H26.871L26.8814 45.5682H28.5054C28.9461 45.5682 29.3157 45.4719 29.6141 45.2792C29.9125 45.0831 30.1381 44.8027 30.2908 44.438C30.4434 44.0699 30.5198 43.6295 30.5198 43.1169V42.7298C30.5198 42.3342 30.4764 41.985 30.3897 41.6822C30.3029 41.3794 30.1745 41.1248 30.0045 40.9184C29.8379 40.712 29.6315 40.5555 29.3851 40.4488C29.1387 40.3421 28.8559 40.2888 28.5367 40.2888H26.8398V39.1689H28.5367C29.0433 39.1689 29.5048 39.2532 29.9212 39.4218C30.3411 39.5904 30.7037 39.833 31.0091 40.1495C31.3179 40.4626 31.5539 40.8376 31.717 41.2745C31.8835 41.7114 31.9668 42.2 31.9668 42.7401V43.1169C31.9668 43.6536 31.8835 44.1421 31.717 44.5825C31.5539 45.0195 31.3179 45.3945 31.0091 45.7075C30.7037 46.0206 30.3393 46.2615 29.916 46.43C29.4926 46.5986 29.0225 46.6829 28.5054 46.6829ZM27.6726 39.1689V46.6829H26.2412V39.1689H27.6726Z" fill="black"/>
<path d="M22.3162 43.9426H20.3643V42.8279H22.3162C22.6355 42.8279 22.894 42.7763 23.0918 42.6731C23.293 42.5664 23.4405 42.4219 23.5342 42.2396C23.6279 42.0538 23.6747 41.8422 23.6747 41.6048C23.6747 41.3743 23.6279 41.1593 23.5342 40.9597C23.4405 40.7602 23.293 40.5985 23.0918 40.4746C22.894 40.3507 22.6355 40.2888 22.3162 40.2888H20.8328V46.6829H19.4014V39.1689H22.3162C22.9061 39.1689 23.4093 39.2739 23.8257 39.4837C24.2456 39.6902 24.5648 39.9775 24.7834 40.3456C25.0055 40.7103 25.1165 41.1266 25.1165 41.5945C25.1165 42.0796 25.0055 42.4976 24.7834 42.8485C24.5648 43.1994 24.2456 43.4695 23.8257 43.6588C23.4093 43.848 22.9061 43.9426 22.3162 43.9426Z" fill="black"/>
<path d="M8 48.6341V9.36585C8 6.40237 10.423 4 13.412 4H36.1315L36.1982 4.0004C37.5969 4.01747 38.9357 4.57092 39.9326 5.54614L47.389 12.8402C48.4197 13.8485 49 15.2243 49 16.6599V48.6341L48.9995 48.7035C48.9621 51.635 46.5536 54 43.588 54V52.5366C45.7618 52.5366 47.524 50.7894 47.524 48.6341V16.6599C47.524 15.6321 47.1151 14.6465 46.3873 13.9165L46.3524 13.8819L38.8959 6.58789C38.1593 5.86738 37.1662 5.46341 36.1315 5.46341H13.412C11.2382 5.46341 9.476 7.2106 9.476 9.36585V48.6341C9.476 50.7894 11.2382 52.5366 13.412 52.5366V54L13.342 53.9995C10.3853 53.9624 8 51.5745 8 48.6341ZM43.588 52.5366V54H13.412V52.5366H43.588Z" fill="white"/>
<defs>
<filter id="filter0_d_2044_2" x="0" y="0" width="57" height="66" filterUnits="userSpaceOnUse" color-interpolation-filters="sRGB">
<feFlood flood-opacity="0" result="BackgroundImageFix"/>
<feColorMatrix in="SourceAlpha" type="matrix" values="0 0 0 0 0 0 0 0 0 0 0 0 0 0 0 0 0 0 127 0" result="hardAlpha"/>
<feOffset dy="4"/>
<feGaussianBlur stdDeviation="4"/>
<feComposite in2="hardAlpha" operator="out"/>
<feColorMatrix type="matrix" values="0 0 0 0 0 0 0 0 0 0 0 0 0 0 0 0 0 0 0.12 0"/>
<feBlend mode="normal" in2="BackgroundImageFix" result="effect1_dropShadow_2044_2"/>
<feBlend mode="normal" in="SourceGraphic" in2="effect1_dropShadow_2044_2" result="shape"/>
</filter>
</defs>
</svg>
